Coordinates
version=1
nRows=9
nColumns=24
inDegrees=yes

Units are S.I. units (second, meters, Newtons, ...)
Angles are in degrees.

endheader
time	pelvis_tilt	pelvis_list	pelvis_rotation	pelvis_tx	pelvis_ty	pelvis_tz	hip_flexion_r	hip_adduction_r	hip_rotation_r	knee_angle_r	ankle_angle_r	subtalar_angle_r	mtp_angle_r	hip_flexion_l	hip_adduction_l	hip_rotation_l	knee_angle_l	ankle_angle_l	subtalar_angle_l	mtp_angle_l	lumbar_extension	lumbar_bending	lumbar_rotation
      0.74550000	     -0.46201559	      2.80035268	      2.83800621	     -0.37492725	      1.08223259	      0.33070462	      9.60027351	     -0.15410654	     -3.30239254	    -17.18625100	      9.24123507	     -3.33412396	      6.64317087	     17.59579024	     -1.56754821	     -2.19497815	    -68.96485697	      9.01381529	     10.19360733	      5.73673899	    -13.96477696	      3.34995531	      0.52290307
      0.74966667	     -0.44586691	      2.94807706	      2.66878324	     -0.36980820	      1.08309307	      0.33139439	      9.14870293	     -0.24766666	     -3.16889663	    -16.88526356	      9.28707397	     -3.28042410	      6.63445589	     18.03132808	     -1.47532194	     -2.38508555	    -68.50142780	      9.27491331	     10.42462837	      5.76574741	    -13.95424265	      3.11265750	      0.60615607
      0.75383333	     -0.39487382	      3.07514786	      2.50133298	     -0.36473152	      1.08398090	      0.33210012	      8.64552341	     -0.31068836	     -2.98530857	    -16.54747192	      9.35690769	     -3.28764309	      6.61317627	     18.42520217	     -1.41265703	     -2.56803472	    -68.00472877	      9.49770117	     10.68041674	      5.81864207	    -14.01577688	      2.90271397	      0.84744587
      0.75800000	     -0.37088397	      3.22817226	      2.32018269	     -0.35964435	      1.08478622	      0.33282494	      8.18946211	     -0.41008658	     -2.83148997	    -16.24522943	      9.39848977	     -3.24178807	      6.60352826	     18.83075167	     -1.32607313	     -2.77853161	    -67.46498072	      9.71585312	     10.83659690	      5.84543576	    -14.02203433	      2.65421244	      0.91922534
      0.76216667	     -0.34199870	      3.36472824	      2.14114323	     -0.35457138	      1.08556488	      0.33355238	      7.71742264	     -0.48660506	     -2.62931300	    -15.91864692	      9.46687490	     -3.27786616	      6.57892793	     19.22366363	     -1.26074645	     -2.98240550	    -66.89058176	      9.88755435	     11.00770404	      5.89652980	    -14.04947174	      2.42756073	      1.16674421
      0.76633333	     -0.32968868	      3.51357923	      1.95916558	     -0.34950156	      1.08627473	      0.33427237	      7.27707179	     -0.58593001	     -2.46805461	    -15.61696209	      9.50854633	     -3.23601757	      6.56852948	     19.62276790	     -1.18269382	     -3.19705976	    -66.28273285	     10.06322094	     11.09652933	      5.91957860	    -14.04695038	      2.18009719	      1.22844828
      0.77050000	     -0.30406066	      3.65277553	      1.77621311	     -0.34445865	      1.08696811	      0.33500610	      6.81991388	     -0.67237481	     -2.28615764	    -15.30554775	      9.56912743	     -3.23072072	      6.55624705	     19.99953656	     -1.11993179	     -3.41205779	    -65.64312597	     10.21167246	     11.17907771	      5.94277369	    -14.06798345	      1.94551868	      1.34940410
      0.77466667	     -0.25304187	      3.79341568	      1.59140092	     -0.33942183	      1.08767938	      0.33572458	      6.33054925	     -0.76064741	     -2.07807043	    -14.98410348	      9.62610569	     -3.29847903	      6.53033482	     20.33211883	     -1.05359884	     -3.62300049	    -64.95722068	     10.32104250	     11.22454584	      5.98031787	    -14.11239050	      1.72528301	      1.58953185
      0.77883333	     -0.26853029	      3.92479669	      1.41978818	     -0.33438023	      1.08821326	      0.33642063	      5.92144923	     -0.84821016	     -1.91227540	    -14.67731356	      9.67211532	     -3.26779427	      6.51865872	     20.73736331	     -0.99452501	     -3.82673038	    -64.26358297	     10.44803504	     11.22814089	      5.99726864	    -14.08510287	      1.48527967	      1.65673975
